<svg id="svg" version="1.1" xmlns="http://www.w3.org/2000/svg" xmlns:xlink="http://www.w3.org/1999/xlink" width="400" height="400" viewBox="0, 0, 400,400"><g id="svgg"><path id="path0" d="M140.575 28.100 L 139.400 29.400 140.700 28.225 C 141.912 27.130,142.184 26.800,141.875 26.800 C 141.806 26.800,141.221 27.385,140.575 28.100 M240.400 26.925 C 240.400 26.994,240.985 27.579,241.700 28.225 L 243.000 29.400 241.825 28.100 C 240.730 26.888,240.400 26.616,240.400 26.925 M209.797 38.900 L 200.200 48.600 209.900 39.003 C 218.914 30.085,219.780 29.200,219.497 29.200 C 219.440 29.200,215.075 33.565,209.797 38.900 M245.966 36.700 C 245.860 38.839,245.963 41.297,246.167 41.500 C 246.295 41.628,246.400 40.443,246.400 38.867 C 246.400 36.391,246.063 34.712,245.966 36.700 M136.028 37.300 C 136.013 37.905,136.180 38.400,136.400 38.400 C 136.869 38.400,136.869 38.093,136.400 37.000 C 136.095 36.291,136.053 36.325,136.028 37.300 M136.000 39.976 C 136.000 40.649,136.069 41.200,136.153 41.200 C 136.493 41.200,136.669 39.166,136.346 38.967 C 136.156 38.849,136.000 39.303,136.000 39.976 M232.997 58.100 L 223.800 67.400 233.100 58.203 C 241.742 49.658,242.580 48.800,242.297 48.800 C 242.240 48.800,238.055 52.985,232.997 58.100 M189.665 56.167 C 190.454 57.016,190.921 57.229,191.465 56.993 C 191.869 56.817,192.380 56.717,192.600 56.770 C 192.820 56.823,192.867 56.733,192.703 56.570 C 192.540 56.407,192.625 55.987,192.891 55.637 C 193.158 55.287,192.920 55.405,192.362 55.900 C 191.106 57.015,190.901 57.016,189.626 55.911 C 188.613 55.034,188.614 55.037,189.665 56.167 M236.400 74.579 C 236.400 74.689,236.940 75.059,237.600 75.400 C 238.260 75.741,238.800 75.931,238.800 75.821 C 238.800 75.711,238.260 75.341,237.600 75.000 C 236.940 74.659,236.400 74.469,236.400 74.579 M100.500 78.300 C 107.265 78.361,118.335 78.361,125.100 78.300 C 131.865 78.238,126.330 78.188,112.800 78.188 C 99.270 78.188,93.735 78.238,100.500 78.300 M262.130 78.300 C 271.331 78.360,286.271 78.360,295.330 78.300 C 304.388 78.240,296.860 78.191,278.600 78.191 C 260.340 78.191,252.928 78.240,262.130 78.300 M56.700 87.227 C 55.875 87.663,55.200 88.108,55.200 88.218 C 55.200 88.396,58.359 86.919,58.767 86.551 C 59.227 86.134,58.025 86.528,56.700 87.227 M361.792 101.113 C 363.988 103.361,365.857 105.200,365.944 105.200 C 366.254 105.200,362.968 101.771,360.400 99.413 C 358.888 98.026,359.471 98.738,361.792 101.113 M38.000 101.000 C 37.028 101.990,36.323 102.800,36.433 102.800 C 36.543 102.800,37.428 101.990,38.400 101.000 C 39.372 100.010,40.077 99.200,39.967 99.200 C 39.857 99.200,38.972 100.010,38.000 101.000 M34.025 105.369 L 32.650 107.000 34.205 105.513 C 35.060 104.696,35.679 103.962,35.580 103.883 C 35.481 103.803,34.781 104.472,34.025 105.369 M142.100 116.700 C 164.485 116.757,201.115 116.757,223.500 116.700 C 245.885 116.643,227.570 116.596,182.800 116.596 C 138.030 116.596,119.715 116.643,142.100 116.700 M95.700 121.876 C 96.085 121.976,96.715 121.976,97.100 121.876 C 97.485 121.775,97.170 121.693,96.400 121.693 C 95.630 121.693,95.315 121.775,95.700 121.876 M78.300 122.629 C 76.749 123.470,76.925 123.761,78.500 122.959 C 80.008 122.193,80.275 121.994,79.767 122.016 C 79.565 122.025,78.905 122.301,78.300 122.629 M112.128 130.800 C 112.128 132.230,112.201 132.815,112.289 132.100 C 112.378 131.385,112.378 130.215,112.289 129.500 C 112.201 128.785,112.128 129.370,112.128 130.800 M66.587 131.700 L 64.200 134.200 66.700 131.813 C 69.022 129.595,69.383 129.200,69.087 129.200 C 69.026 129.200,67.901 130.325,66.587 131.700 M298.420 131.421 C 299.399 132.533,300.281 133.381,300.381 133.307 C 300.480 133.233,299.679 132.323,298.601 131.286 L 296.640 129.400 298.420 131.421 M108.975 138.100 L 107.800 139.400 109.100 138.225 C 109.815 137.579,110.400 136.994,110.400 136.925 C 110.400 136.616,110.070 136.888,108.975 138.100 M384.093 144.000 C 384.093 144.770,384.175 145.085,384.276 144.700 C 384.376 144.315,384.376 143.685,384.276 143.300 C 384.175 142.915,384.093 143.230,384.093 144.000 M15.693 146.000 C 15.693 146.770,15.775 147.085,15.876 146.700 C 15.976 146.315,15.976 145.685,15.876 145.300 C 15.775 144.915,15.693 145.230,15.693 146.000 M384.542 152.200 C 384.541 154.180,384.608 155.040,384.692 154.112 C 384.776 153.184,384.777 151.564,384.695 150.512 C 384.612 149.460,384.543 150.220,384.542 152.200 M87.978 153.500 L 86.600 155.000 88.100 153.622 C 89.496 152.338,89.784 152.000,89.478 152.000 C 89.412 152.000,88.737 152.675,87.978 153.500 M311.693 157.600 C 311.693 158.370,311.775 158.685,311.876 158.300 C 311.976 157.915,311.976 157.285,311.876 156.900 C 311.775 156.515,311.693 156.830,311.693 157.600 M151.674 159.601 C 148.654 160.241,143.597 164.374,144.131 165.766 C 144.270 166.128,144.177 166.350,143.908 166.295 C 143.654 166.243,142.985 167.280,142.423 168.600 L 141.400 171.000 141.286 212.748 C 141.166 256.459,141.233 258.452,142.930 262.159 C 146.472 269.895,155.954 273.041,164.000 269.149 C 170.442 266.032,183.406 258.082,183.283 257.323 C 183.191 256.749,183.245 256.716,183.546 257.164 C 183.970 257.792,183.657 257.957,199.000 249.006 C 203.840 246.183,210.050 242.569,212.800 240.975 C 216.650 238.744,217.773 237.908,217.683 237.339 C 217.592 236.762,217.649 236.722,217.942 237.157 C 218.360 237.776,217.722 238.089,227.200 232.616 C 240.116 225.157,243.264 220.167,240.949 210.826 C 239.389 204.532,237.982 203.240,223.508 194.825 C 217.289 191.208,206.440 184.896,199.400 180.797 C 186.968 173.559,168.553 162.870,167.855 162.487 C 167.666 162.383,167.334 162.546,167.118 162.849 C 166.813 163.275,166.775 163.242,166.950 162.700 C 167.667 160.470,157.401 158.388,151.674 159.601 M78.778 162.700 L 77.400 164.200 78.900 162.822 C 80.296 161.538,80.584 161.200,80.278 161.200 C 80.212 161.200,79.537 161.875,78.778 162.700 M312.195 218.000 C 312.195 248.910,312.242 261.555,312.300 246.100 C 312.358 230.645,312.358 205.355,312.300 189.900 C 312.242 174.445,312.195 187.090,312.195 218.000 M52.594 218.200 C 52.594 247.680,52.642 259.681,52.700 244.869 C 52.758 230.057,52.758 205.937,52.700 191.269 C 52.642 176.601,52.594 188.720,52.594 218.200 M56.400 170.658 C 56.400 170.874,56.985 171.579,57.700 172.225 L 59.000 173.400 57.800 172.002 C 57.140 171.233,56.555 170.528,56.500 170.435 C 56.445 170.343,56.400 170.443,56.400 170.658 M351.233 182.500 C 351.325 182.555,351.940 183.050,352.600 183.600 L 353.800 184.600 352.830 183.500 C 352.297 182.895,351.682 182.400,351.464 182.400 C 351.245 182.400,351.142 182.445,351.233 182.500 M348.100 242.676 C 348.485 242.776,349.115 242.776,349.500 242.676 C 349.885 242.575,349.570 242.493,348.800 242.493 C 348.030 242.493,347.715 242.575,348.100 242.676 M347.900 253.882 C 348.395 253.978,349.205 253.978,349.700 253.882 C 350.195 253.787,349.790 253.709,348.800 253.709 C 347.810 253.709,347.405 253.787,347.900 253.882 M311.693 278.400 C 311.693 279.170,311.775 279.485,311.876 279.100 C 311.976 278.715,311.976 278.085,311.876 277.700 C 311.775 277.315,311.693 277.630,311.693 278.400 M384.540 282.800 C 384.540 284.670,384.609 285.435,384.693 284.500 C 384.777 283.565,384.777 282.035,384.693 281.100 C 384.609 280.165,384.540 280.930,384.540 282.800 M15.701 289.400 C 15.705 290.280,15.787 290.593,15.883 290.095 C 15.979 289.598,15.975 288.878,15.875 288.495 C 15.775 288.113,15.696 288.520,15.701 289.400 M65.400 303.200 C 66.259 304.080,67.052 304.800,67.162 304.800 C 67.272 304.800,66.659 304.080,65.800 303.200 C 64.941 302.320,64.148 301.600,64.038 301.600 C 63.928 301.600,64.541 302.320,65.400 303.200 M298.213 304.792 L 295.426 307.800 298.395 304.915 C 300.027 303.328,301.281 301.974,301.182 301.907 C 301.082 301.839,299.746 303.137,298.213 304.792 M68.000 305.725 C 68.000 305.794,68.585 306.379,69.300 307.025 L 70.600 308.200 69.425 306.900 C 68.330 305.688,68.000 305.416,68.000 305.725 M100.500 319.476 C 100.885 319.576,101.515 319.576,101.900 319.476 C 102.285 319.375,101.970 319.293,101.200 319.293 C 100.430 319.293,100.115 319.375,100.500 319.476 M263.700 319.476 C 264.085 319.576,264.715 319.576,265.100 319.476 C 265.485 319.375,265.170 319.293,264.400 319.293 C 263.630 319.293,263.315 319.375,263.700 319.476 M35.000 330.800 C 35.859 331.680,36.652 332.400,36.762 332.400 C 36.872 332.400,36.259 331.680,35.400 330.800 C 34.541 329.920,33.748 329.200,33.638 329.200 C 33.528 329.200,34.141 329.920,35.000 330.800 M364.575 331.300 L 363.400 332.600 364.700 331.425 C 365.415 330.779,366.000 330.194,366.000 330.125 C 366.000 329.816,365.670 330.088,364.575 331.300 M357.800 337.876 C 355.882 339.684,355.630 340.006,357.000 338.898 C 358.897 337.364,361.136 335.179,360.770 335.219 C 360.676 335.229,359.340 336.425,357.800 337.876 M40.400 336.125 C 40.400 336.194,40.985 336.779,41.700 337.425 L 43.000 338.600 41.825 337.300 C 40.730 336.088,40.400 335.816,40.400 336.125 M46.073 341.026 C 46.443 341.452,47.343 342.141,48.073 342.557 C 49.639 343.450,49.226 343.007,47.000 341.404 C 46.069 340.734,45.682 340.576,46.073 341.026 M56.800 347.797 C 56.800 348.068,60.049 349.684,60.230 349.503 C 60.314 349.419,59.576 348.959,58.591 348.481 C 57.606 348.002,56.800 347.694,56.800 347.797 M341.600 348.600 C 340.610 349.130,339.942 349.572,340.116 349.582 C 340.541 349.606,343.600 348.034,343.600 347.792 C 343.600 347.527,343.617 347.520,341.600 348.600 M158.900 356.700 C 179.965 356.757,214.435 356.757,235.500 356.700 C 256.565 356.643,239.330 356.596,197.200 356.596 C 155.070 356.596,137.835 356.643,158.900 356.700 M120.493 361.600 C 120.493 362.370,120.575 362.685,120.676 362.300 C 120.776 361.915,120.776 361.285,120.676 360.900 C 120.575 360.515,120.493 360.830,120.493 361.600 M85.765 371.483 C 87.121 372.942,88.000 373.345,88.000 372.510 C 88.000 372.376,87.876 372.390,87.725 372.541 C 87.574 372.693,86.719 372.138,85.825 371.308 L 84.200 369.800 85.765 371.483 M89.200 374.196 C 89.200 374.470,91.649 375.684,91.832 375.501 C 91.919 375.414,91.362 375.044,90.595 374.678 C 89.828 374.312,89.200 374.095,89.200 374.196 M291.500 374.293 C 292.435 374.377,293.965 374.377,294.900 374.293 C 295.835 374.209,295.070 374.140,293.200 374.140 C 291.330 374.140,290.565 374.209,291.500 374.293 M94.500 376.276 C 94.885 376.376,95.515 376.376,95.900 376.276 C 96.285 376.175,95.970 376.093,95.200 376.093 C 94.430 376.093,94.115 376.175,94.500 376.276 " stroke="none" fill="#ece474" fill-rule="evenodd"></path><path id="path1" d="M145.194 24.533 C 143.987 25.014,143.000 25.615,143.000 25.870 C 143.000 26.125,142.836 26.483,142.636 26.667 C 142.424 26.860,142.392 26.790,142.559 26.500 C 142.988 25.755,142.183 25.896,141.549 26.677 C 141.176 27.137,141.160 27.257,141.500 27.053 C 142.371 26.530,142.043 27.011,140.701 28.225 C 139.452 29.355,139.440 29.358,140.371 28.300 C 140.904 27.695,141.137 27.200,140.890 27.200 C 140.439 27.200,138.400 29.625,138.400 30.161 C 138.400 30.319,138.625 30.318,138.900 30.159 C 139.190 29.992,139.260 30.024,139.067 30.236 C 138.883 30.436,138.523 30.603,138.267 30.607 C 138.010 30.611,137.813 31.007,137.830 31.487 C 137.846 31.967,137.734 32.283,137.581 32.188 C 136.909 31.773,135.800 35.898,135.800 38.813 C 135.800 41.655,136.872 45.449,137.556 45.027 C 137.690 44.945,137.827 45.333,137.861 45.891 C 137.929 47.015,139.310 49.047,139.917 48.916 C 140.130 48.870,140.641 49.230,141.052 49.716 L 141.800 50.600 140.900 49.838 C 140.405 49.419,140.000 49.237,140.000 49.435 C 140.000 49.632,143.986 53.782,148.858 58.658 C 158.608 68.416,158.515 68.251,155.032 69.554 C 151.200 70.987,147.146 73.190,147.446 73.675 C 147.612 73.943,147.544 74.012,147.276 73.847 C 146.638 73.453,143.506 75.125,143.848 75.677 C 143.999 75.923,143.947 76.014,143.731 75.881 C 143.515 75.748,142.497 76.065,141.468 76.586 C 140.439 77.106,139.778 77.593,139.998 77.666 C 140.219 77.740,128.384 77.800,113.699 77.800 C 87.252 77.800,80.625 78.103,82.447 79.229 C 82.721 79.399,81.788 79.465,80.373 79.376 C 78.435 79.254,78.047 79.309,78.800 79.597 C 79.576 79.895,79.371 79.932,77.886 79.764 C 75.922 79.541,73.032 80.205,73.397 80.795 C 73.509 80.977,73.213 81.024,72.738 80.900 C 72.209 80.761,71.972 80.831,72.125 81.079 C 72.280 81.329,71.958 81.418,71.288 81.311 C 70.401 81.169,70.311 81.223,70.800 81.601 C 71.280 81.972,71.167 82.013,70.234 81.808 C 68.992 81.535,62.261 83.851,62.618 84.429 C 62.719 84.592,62.486 84.650,62.101 84.559 C 61.188 84.342,52.566 88.951,52.710 89.579 C 52.770 89.843,52.639 89.948,52.419 89.812 C 52.032 89.573,47.600 92.154,47.600 92.619 C 47.600 92.744,47.825 92.712,48.100 92.547 C 48.440 92.343,48.424 92.463,48.051 92.923 C 47.433 93.685,47.004 93.841,47.432 93.148 C 47.602 92.874,47.493 92.769,47.156 92.881 C 46.850 92.983,46.600 93.268,46.600 93.513 C 46.600 93.759,46.339 94.194,46.019 94.480 C 45.518 94.929,45.511 94.904,45.968 94.300 C 46.260 93.915,46.324 93.600,46.111 93.600 C 45.651 93.600,44.455 94.857,44.462 95.333 C 44.464 95.517,44.333 95.787,44.169 95.933 C 44.006 96.080,44.001 95.975,44.159 95.700 C 44.684 94.789,43.756 95.182,42.770 96.288 C 42.042 97.104,42.000 97.232,42.600 96.800 C 43.200 96.368,43.158 96.496,42.430 97.312 C 41.422 98.444,40.727 98.852,41.600 97.800 C 41.874 97.470,41.938 97.200,41.741 97.200 C 41.205 97.200,33.404 105.138,33.675 105.408 C 33.803 105.537,34.289 105.158,34.754 104.567 C 35.219 103.976,35.600 103.661,35.600 103.868 C 35.600 104.074,34.933 104.863,34.117 105.622 C 33.302 106.380,32.894 106.640,33.211 106.200 C 33.780 105.408,33.777 105.408,32.893 106.162 C 31.945 106.971,31.658 107.844,32.500 107.359 C 32.790 107.192,32.860 107.224,32.667 107.436 C 32.483 107.636,32.213 107.803,32.067 107.806 C 31.565 107.818,30.800 108.447,30.800 108.847 C 30.800 109.067,30.980 109.136,31.200 109.000 C 31.851 108.598,31.656 109.057,30.923 109.651 C 30.339 110.125,30.295 110.118,30.600 109.600 C 30.905 109.082,30.861 109.075,30.277 109.549 C 29.520 110.163,29.341 111.007,30.062 110.562 C 30.350 110.384,30.415 110.452,30.234 110.745 C 30.075 111.002,29.783 111.113,29.586 110.992 C 29.060 110.666,26.261 115.052,26.622 115.636 C 26.810 115.939,26.757 116.020,26.482 115.851 C 25.935 115.513,25.059 117.048,25.443 117.670 C 25.612 117.943,25.545 118.013,25.277 117.848 C 24.718 117.502,23.055 120.646,23.368 121.460 C 23.490 121.780,23.421 121.936,23.212 121.808 C 22.708 121.496,21.481 123.913,21.766 124.657 C 21.890 124.978,21.834 125.145,21.642 125.026 C 21.099 124.690,19.520 128.719,19.823 129.671 C 19.989 130.196,19.934 130.406,19.672 130.244 C 19.161 129.929,18.640 131.417,19.036 132.058 C 19.207 132.335,19.150 132.416,18.894 132.258 C 18.281 131.879,17.508 134.492,17.841 135.819 C 18.036 136.598,17.983 136.837,17.658 136.636 C 17.387 136.469,17.200 136.613,17.200 136.989 C 17.200 137.339,16.826 138.734,16.370 140.090 C 15.741 141.955,15.592 143.144,15.756 144.977 C 15.900 146.595,15.857 147.068,15.626 146.400 C 15.429 145.831,15.283 176.582,15.287 217.800 C 15.291 257.707,15.446 289.661,15.631 289.000 C 15.868 288.157,15.909 288.530,15.770 290.252 C 15.575 292.658,16.327 296.042,17.115 296.305 C 17.304 296.368,17.376 296.981,17.276 297.667 C 17.140 298.589,17.222 298.834,17.589 298.607 C 17.961 298.377,18.020 298.599,17.823 299.493 C 17.544 300.767,18.631 304.152,19.205 303.797 C 19.381 303.688,19.441 303.922,19.338 304.317 C 19.095 305.246,20.747 309.680,21.226 309.384 C 21.427 309.260,21.472 309.467,21.327 309.845 C 21.135 310.347,21.206 310.444,21.594 310.204 C 21.948 309.985,22.028 310.031,21.836 310.342 C 21.461 310.949,21.949 312.479,22.424 312.185 C 22.626 312.060,22.673 312.267,22.527 312.645 C 22.350 313.107,22.415 313.238,22.727 313.045 C 23.040 312.852,23.105 312.982,22.927 313.445 C 22.735 313.947,22.806 314.044,23.194 313.804 C 23.543 313.588,23.628 313.631,23.443 313.930 C 23.086 314.509,23.917 316.099,24.415 315.790 C 24.622 315.663,24.686 315.831,24.558 316.164 C 24.419 316.526,24.783 317.204,25.463 317.850 C 26.088 318.445,26.375 318.801,26.100 318.642 C 25.316 318.189,25.508 318.824,26.654 320.478 C 27.605 321.851,28.461 322.669,27.762 321.538 C 27.584 321.250,27.652 321.185,27.945 321.366 C 28.202 321.525,28.303 321.833,28.168 322.051 C 27.951 322.403,29.852 325.600,30.278 325.600 C 30.371 325.600,30.312 325.375,30.147 325.100 C 29.943 324.760,30.063 324.776,30.523 325.149 C 31.256 325.743,31.451 326.202,30.800 325.800 C 30.580 325.664,30.400 325.721,30.400 325.927 C 30.400 326.408,31.411 327.256,31.673 326.994 C 31.782 326.885,32.215 327.198,32.636 327.691 C 33.254 328.416,33.267 328.483,32.700 328.044 C 30.888 326.641,32.387 328.618,36.233 332.703 C 39.864 336.561,42.485 338.757,40.764 336.500 C 40.471 336.115,40.809 336.329,41.515 336.975 C 42.899 338.241,43.261 338.881,42.073 337.962 C 41.674 337.653,42.079 338.087,42.973 338.926 C 45.475 341.273,49.534 344.088,50.001 343.799 C 50.231 343.657,50.370 343.764,50.310 344.037 C 50.173 344.655,55.207 347.679,55.921 347.407 C 56.207 347.298,56.335 347.381,56.205 347.591 C 55.894 348.096,60.716 350.518,61.462 350.231 C 61.781 350.109,61.945 350.166,61.826 350.358 C 61.490 350.901,65.519 352.480,66.471 352.177 C 67.063 351.989,67.214 352.053,67.000 352.400 C 66.782 352.753,66.946 352.808,67.600 352.600 C 68.165 352.421,68.408 352.464,68.253 352.715 C 67.850 353.367,71.099 354.448,72.736 354.207 C 73.906 354.035,74.039 354.074,73.400 354.402 C 72.782 354.720,73.010 354.765,74.400 354.601 C 75.443 354.478,75.984 354.531,75.686 354.727 C 75.046 355.147,79.596 356.599,80.670 356.317 C 81.347 356.139,81.394 356.436,81.313 360.363 C 81.252 363.348,81.342 364.364,81.618 363.800 C 81.920 363.180,81.960 363.329,81.794 364.458 C 81.571 365.971,82.264 368.131,82.854 367.767 C 83.039 367.652,83.092 367.815,82.972 368.129 C 82.851 368.443,83.228 369.218,83.809 369.850 C 84.389 370.483,84.734 370.730,84.574 370.400 C 84.413 370.070,84.995 370.479,85.866 371.308 C 86.738 372.138,87.603 372.678,87.789 372.508 C 87.976 372.339,87.989 372.441,87.819 372.735 C 87.585 373.140,87.181 372.951,86.155 371.956 C 85.410 371.234,84.800 370.853,84.800 371.109 C 84.800 372.797,91.915 376.476,94.654 376.204 C 96.092 376.062,96.339 376.104,95.600 376.366 C 94.945 376.598,96.879 376.720,101.200 376.720 C 105.473 376.720,107.447 376.597,106.800 376.370 C 106.072 376.115,106.309 376.077,107.671 376.230 C 109.642 376.452,114.709 374.424,114.209 373.614 C 114.087 373.417,114.198 373.125,114.455 372.966 C 114.748 372.785,114.816 372.850,114.638 373.138 C 113.988 374.191,115.145 373.484,116.666 371.900 C 119.623 368.821,120.609 366.630,120.538 363.300 C 120.498 361.444,120.620 360.489,120.878 360.648 C 121.135 360.807,121.229 360.085,121.140 358.648 L 121.000 356.399 197.200 356.399 L 273.400 356.398 273.308 359.099 C 273.239 361.108,273.317 361.595,273.612 361.000 C 273.916 360.386,273.955 360.559,273.779 361.739 C 273.637 362.689,273.698 363.187,273.937 363.039 C 274.155 362.904,274.242 363.118,274.135 363.528 C 273.891 364.459,276.351 368.470,276.954 368.126 C 277.199 367.986,277.262 368.024,277.093 368.210 C 276.924 368.395,277.364 369.144,278.071 369.874 C 279.314 371.155,280.346 371.683,279.762 370.738 C 279.584 370.450,279.652 370.385,279.945 370.566 C 280.202 370.725,280.315 371.014,280.195 371.208 C 279.894 371.695,281.530 372.513,282.252 372.235 C 282.576 372.111,282.740 372.173,282.616 372.374 C 282.492 372.575,283.338 373.085,284.495 373.507 C 288.647 375.022,304.861 374.116,303.817 372.428 C 303.720 372.270,304.036 372.154,304.520 372.170 C 305.007 372.187,305.358 371.983,305.305 371.714 C 305.252 371.443,305.460 371.325,305.778 371.447 C 307.638 372.161,312.549 365.132,312.581 361.711 C 312.591 360.550,312.715 359.601,312.855 359.600 C 312.996 359.600,313.229 358.970,313.374 358.200 L 313.636 356.800 316.318 356.760 C 318.381 356.729,318.769 356.639,318.000 356.370 C 317.274 356.115,317.514 356.077,318.878 356.231 C 320.856 356.454,324.165 355.790,323.824 355.239 C 323.714 355.061,324.114 354.994,324.712 355.089 C 325.559 355.224,325.667 355.169,325.200 354.843 C 324.756 354.532,325.015 354.480,326.200 354.644 C 327.453 354.818,327.670 354.767,327.200 354.409 C 326.725 354.046,326.858 354.002,327.843 354.195 C 329.263 354.473,332.538 353.347,332.147 352.715 C 331.992 352.464,332.235 352.421,332.800 352.600 C 333.454 352.808,333.618 352.753,333.400 352.400 C 333.186 352.053,333.337 351.989,333.929 352.177 C 334.881 352.480,338.910 350.901,338.574 350.358 C 338.455 350.166,338.618 350.109,338.936 350.231 C 339.761 350.548,346.102 347.288,345.754 346.726 C 345.587 346.455,345.656 346.388,345.930 346.557 C 346.493 346.905,348.103 346.090,347.805 345.608 C 347.685 345.414,347.798 345.125,348.055 344.966 C 348.348 344.785,348.416 344.850,348.238 345.138 C 348.081 345.392,348.047 345.600,348.163 345.600 C 348.636 345.600,352.200 343.146,352.200 342.820 C 352.200 342.625,352.364 342.317,352.564 342.133 C 352.776 341.940,352.808 342.010,352.641 342.300 C 352.482 342.575,352.516 342.800,352.714 342.800 C 353.155 342.800,354.345 341.529,354.338 341.067 C 354.336 340.883,354.467 340.613,354.631 340.467 C 354.794 340.320,354.784 340.448,354.608 340.752 C 353.999 341.803,355.149 341.008,358.781 337.865 C 360.773 336.140,362.315 334.586,362.206 334.410 C 362.098 334.234,362.322 333.845,362.704 333.545 C 363.346 333.042,363.355 333.062,362.817 333.800 C 362.497 334.240,362.902 333.980,363.717 333.222 C 364.533 332.463,365.200 331.670,365.200 331.460 C 365.200 331.249,364.840 331.402,364.400 331.800 C 363.960 332.198,363.600 332.440,363.600 332.337 C 363.600 332.234,364.178 331.621,364.885 330.975 C 365.591 330.329,365.912 330.160,365.597 330.600 C 365.165 331.203,365.292 331.161,366.112 330.430 C 367.218 329.444,367.611 328.516,366.700 329.041 C 366.425 329.199,366.636 328.850,367.170 328.265 C 368.349 326.970,368.810 326.848,367.792 328.100 C 367.390 328.595,367.823 328.215,368.756 327.255 C 369.688 326.295,370.368 325.294,370.267 325.030 C 370.166 324.766,370.446 324.112,370.889 323.575 L 371.695 322.600 371.022 323.800 L 370.349 325.000 371.398 323.850 C 371.975 323.218,372.349 322.443,372.228 322.129 C 372.108 321.815,372.178 321.663,372.385 321.790 C 372.822 322.061,373.735 320.543,373.431 320.051 C 373.318 319.868,373.500 319.376,373.835 318.959 C 374.405 318.249,374.415 318.265,374.000 319.200 C 373.576 320.155,373.584 320.165,374.187 319.411 C 374.534 318.978,374.726 318.383,374.613 318.091 C 374.501 317.798,374.579 317.664,374.788 317.792 C 375.286 318.100,376.513 315.707,376.155 315.126 C 375.972 314.831,376.059 314.789,376.406 315.004 C 376.794 315.244,376.865 315.147,376.673 314.645 C 376.524 314.257,376.572 314.059,376.785 314.190 C 377.289 314.502,378.120 312.889,377.835 312.148 C 377.711 311.824,377.770 311.658,377.966 311.779 C 378.345 312.013,379.307 309.696,379.022 309.235 C 378.929 309.085,379.038 308.700,379.264 308.381 C 379.584 307.929,379.617 307.978,379.414 308.600 C 379.217 309.204,379.266 309.287,379.615 308.942 C 379.869 308.689,380.095 307.846,380.117 307.067 C 380.139 306.287,380.302 305.739,380.479 305.849 C 380.655 305.958,380.800 305.805,380.800 305.508 C 380.800 305.212,381.168 304.256,381.618 303.385 C 382.194 302.269,382.367 301.386,382.203 300.400 C 382.033 299.376,382.080 299.161,382.379 299.600 C 382.788 300.200,383.031 298.690,382.862 296.600 C 382.817 296.040,382.898 295.954,383.131 296.314 C 383.657 297.125,384.449 293.919,384.215 291.925 C 384.053 290.547,384.089 290.401,384.390 291.200 C 384.640 291.861,384.697 290.030,384.559 285.800 C 384.412 281.283,384.474 279.577,384.769 280.000 C 385.061 280.419,385.190 261.662,385.194 217.876 C 385.198 170.806,385.086 155.224,384.741 155.436 C 384.400 155.647,384.343 154.142,384.519 149.560 C 384.672 145.578,384.624 143.754,384.383 144.400 C 384.095 145.175,384.054 144.970,384.200 143.488 C 384.384 141.617,383.588 138.329,382.895 138.098 C 382.712 138.037,382.627 137.315,382.707 136.494 C 382.822 135.307,382.758 135.123,382.393 135.600 C 382.028 136.079,381.985 135.971,382.184 135.066 C 382.488 133.679,382.099 132.291,381.509 132.656 C 381.250 132.816,381.192 132.737,381.364 132.458 C 381.725 131.875,381.260 130.316,380.809 130.595 C 380.625 130.708,380.576 130.413,380.700 129.938 C 380.870 129.291,380.793 129.157,380.395 129.403 C 380.005 129.644,379.935 129.547,380.131 129.037 C 380.444 128.221,378.871 124.309,378.358 124.626 C 378.166 124.745,378.110 124.578,378.234 124.257 C 378.519 123.513,377.292 121.096,376.788 121.408 C 376.572 121.541,376.523 121.346,376.673 120.955 C 376.861 120.463,376.791 120.358,376.425 120.584 C 376.057 120.812,375.981 120.691,376.152 120.150 C 376.396 119.381,373.757 114.746,370.658 110.500 C 369.281 108.614,368.284 107.620,369.053 108.900 C 369.257 109.240,369.137 109.224,368.677 108.851 C 367.915 108.233,367.759 107.804,368.452 108.232 C 368.729 108.403,368.826 108.296,368.702 107.956 C 368.591 107.650,368.319 107.438,368.098 107.484 C 367.876 107.530,367.359 107.170,366.948 106.684 L 366.200 105.800 367.100 106.562 C 367.595 106.981,368.000 107.147,368.000 106.932 C 368.000 106.434,366.205 104.728,365.950 104.983 C 365.845 105.088,363.968 103.336,361.780 101.089 C 359.591 98.843,358.956 98.084,360.370 99.402 C 361.783 100.721,363.262 102.160,363.657 102.600 C 364.051 103.040,364.379 103.194,364.387 102.943 C 364.394 102.692,362.801 101.027,360.847 99.243 C 357.469 96.159,356.065 95.170,357.239 96.700 C 357.534 97.085,357.286 96.964,356.688 96.430 C 355.480 95.353,355.205 94.796,356.300 95.644 C 356.870 96.085,356.858 96.020,356.238 95.293 C 355.429 94.345,354.556 94.058,355.041 94.900 C 355.208 95.190,355.176 95.260,354.964 95.067 C 354.764 94.883,354.597 94.613,354.594 94.467 C 354.591 94.320,354.445 93.975,354.270 93.700 C 353.856 93.047,353.065 93.047,353.441 93.700 C 353.608 93.990,353.576 94.060,353.364 93.867 C 353.164 93.683,352.997 93.413,352.994 93.267 C 352.982 92.765,352.353 92.000,351.953 92.000 C 351.733 92.000,351.681 92.208,351.838 92.462 C 352.016 92.750,351.948 92.815,351.655 92.634 C 351.398 92.475,351.282 92.191,351.398 92.004 C 351.684 91.541,346.916 88.681,346.394 89.003 C 346.167 89.144,346.030 89.021,346.090 88.730 C 346.151 88.438,345.892 88.224,345.516 88.253 C 345.139 88.282,344.869 88.102,344.916 87.853 C 344.962 87.604,344.604 87.413,344.120 87.430 C 343.636 87.446,343.327 87.319,343.433 87.147 C 343.715 86.690,341.230 85.503,340.543 85.766 C 340.222 85.890,340.055 85.834,340.174 85.642 C 340.464 85.173,336.475 83.486,335.740 83.768 C 335.420 83.890,335.260 83.826,335.385 83.624 C 335.679 83.149,334.149 82.661,333.542 83.036 C 333.258 83.211,333.184 83.150,333.352 82.877 C 333.530 82.589,332.805 82.201,331.314 81.786 C 330.041 81.431,327.900 80.788,326.557 80.357 C 324.919 79.831,323.534 79.645,322.357 79.793 C 320.996 79.963,320.780 79.920,321.400 79.601 C 322.001 79.291,321.560 79.232,319.627 79.363 C 318.212 79.459,317.279 79.399,317.553 79.229 C 319.487 78.034,312.930 77.800,277.500 77.800 C 257.975 77.800,242.206 77.731,242.457 77.648 C 242.708 77.564,242.329 77.250,241.615 76.950 C 240.901 76.649,240.168 76.496,239.986 76.608 C 239.804 76.721,239.525 76.602,239.366 76.345 C 239.173 76.033,239.251 75.984,239.600 76.200 C 239.949 76.416,240.027 76.368,239.833 76.054 C 239.370 75.304,235.614 73.544,235.123 73.847 C 234.831 74.028,234.790 73.940,235.004 73.594 C 235.244 73.206,235.147 73.135,234.645 73.327 C 234.254 73.477,234.059 73.428,234.192 73.212 C 234.504 72.708,232.087 71.481,231.343 71.766 C 231.022 71.890,230.864 71.821,230.992 71.612 C 231.238 71.215,229.697 70.294,228.000 69.824 C 227.237 69.613,227.142 69.647,227.600 69.968 C 227.930 70.199,228.020 70.388,227.800 70.388 C 227.269 70.388,226.085 69.614,226.600 69.605 C 226.820 69.600,226.392 69.226,225.649 68.773 L 224.298 67.950 225.349 66.853 C 226.840 65.297,226.655 64.822,225.100 66.214 C 224.385 66.854,227.928 63.208,232.973 58.113 C 238.017 53.017,242.337 48.882,242.573 48.924 C 242.808 48.966,242.951 48.762,242.890 48.470 C 242.830 48.179,242.956 48.049,243.170 48.181 C 243.653 48.480,244.529 46.933,244.189 46.382 C 244.052 46.161,244.179 46.030,244.470 46.090 C 244.789 46.156,244.988 45.849,244.970 45.320 C 244.954 44.836,245.075 44.522,245.238 44.624 C 245.654 44.881,246.517 42.113,246.187 41.579 C 245.821 40.987,245.838 37.272,246.213 35.840 C 246.408 35.095,246.373 34.769,246.116 34.928 C 245.880 35.074,245.782 34.812,245.878 34.288 C 246.060 33.292,243.601 28.950,242.929 29.081 C 242.701 29.126,241.993 28.603,241.357 27.919 C 240.721 27.236,240.470 26.829,240.800 27.015 C 241.317 27.307,241.324 27.260,240.851 26.677 C 240.237 25.920,239.393 25.741,239.838 26.462 C 240.016 26.750,239.948 26.815,239.655 26.634 C 239.398 26.475,239.293 26.173,239.423 25.963 C 239.991 25.044,235.868 23.849,231.794 23.753 C 227.650 23.655,223.400 24.727,223.400 25.870 C 223.400 26.125,223.236 26.483,223.036 26.667 C 222.824 26.860,222.792 26.790,222.959 26.500 C 223.346 25.829,222.781 25.889,221.812 26.621 C 220.615 27.526,206.400 41.657,206.400 41.942 C 206.400 42.079,209.370 39.225,213.000 35.600 C 216.630 31.975,219.600 29.098,219.600 29.208 C 219.600 29.317,215.238 33.725,209.907 39.003 C 204.576 44.281,201.013 47.745,201.990 46.700 C 202.967 45.655,203.591 44.800,203.377 44.800 C 202.699 44.800,193.958 53.823,194.286 54.184 C 194.459 54.373,194.403 54.416,194.161 54.278 C 193.920 54.141,193.211 54.562,192.586 55.214 C 190.950 56.923,191.809 57.613,176.423 42.223 C 168.628 34.425,162.059 28.154,161.825 28.287 C 161.591 28.420,161.533 28.381,161.697 28.201 C 162.027 27.836,161.311 26.800,160.727 26.800 C 160.521 26.800,160.482 27.025,160.641 27.300 C 160.808 27.590,160.776 27.660,160.564 27.467 C 160.364 27.283,160.200 26.938,160.200 26.700 C 160.200 26.462,159.950 26.183,159.644 26.081 C 159.274 25.958,159.194 26.067,159.406 26.410 C 159.616 26.749,159.565 26.825,159.255 26.634 C 158.998 26.475,158.893 26.173,159.023 25.963 C 160.180 24.091,149.160 22.951,145.194 24.533 M241.802 28.002 C 242.202 28.444,242.615 28.718,242.721 28.612 C 242.990 28.343,241.992 27.200,241.489 27.200 C 241.262 27.200,241.403 27.561,241.802 28.002 M136.772 38.100 C 136.787 38.265,136.620 38.400,136.400 38.400 C 136.180 38.400,136.013 37.905,136.028 37.300 C 136.054 36.274,136.662 36.927,136.772 38.100 M246.528 38.800 C 246.528 40.230,246.601 40.815,246.689 40.100 C 246.778 39.385,246.778 38.215,246.689 37.500 C 246.601 36.785,246.528 37.370,246.528 38.800 M136.500 40.190 C 136.237 41.563,136.000 41.461,136.000 39.976 C 136.000 39.303,136.156 38.849,136.346 38.967 C 136.537 39.085,136.606 39.635,136.500 40.190 M204.616 43.206 C 203.966 43.844,203.528 44.461,203.644 44.577 C 203.760 44.693,204.463 44.161,205.206 43.394 C 206.829 41.719,206.304 41.552,204.616 43.206 M234.185 57.215 C 229.797 61.607,226.369 65.200,226.567 65.200 C 227.042 65.200,242.584 49.651,242.346 49.413 C 242.246 49.312,238.573 52.823,234.185 57.215 M191.000 56.800 C 191.192 56.800,191.805 56.395,192.362 55.900 C 192.920 55.405,193.158 55.287,192.891 55.637 C 192.625 55.987,192.540 56.407,192.703 56.570 C 192.867 56.733,192.820 56.823,192.600 56.770 C 192.380 56.717,191.869 56.817,191.465 56.993 C 190.921 57.229,190.454 57.016,189.665 56.167 C 188.614 55.037,188.613 55.034,189.626 55.911 C 190.190 56.400,190.808 56.800,191.000 56.800 M238.800 75.821 C 238.800 75.931,238.260 75.741,237.600 75.400 C 236.940 75.059,236.400 74.689,236.400 74.579 C 236.400 74.469,236.940 74.659,237.600 75.000 C 238.260 75.341,238.800 75.711,238.800 75.821 M125.100 78.300 C 118.335 78.361,107.265 78.361,100.500 78.300 C 93.735 78.238,99.270 78.188,112.800 78.188 C 126.330 78.188,131.865 78.238,125.100 78.300 M295.330 78.300 C 286.271 78.360,271.331 78.360,262.130 78.300 C 252.928 78.240,260.340 78.191,278.600 78.191 C 296.860 78.191,304.388 78.240,295.330 78.300 M58.767 86.551 C 58.359 86.919,55.200 88.396,55.200 88.218 C 55.200 87.972,58.062 86.442,58.567 86.418 C 58.768 86.408,58.858 86.468,58.767 86.551 M38.400 101.000 C 37.428 101.990,36.543 102.800,36.433 102.800 C 36.323 102.800,37.028 101.990,38.000 101.000 C 38.972 100.010,39.857 99.200,39.967 99.200 C 40.077 99.200,39.372 100.010,38.400 101.000 M365.002 104.002 C 365.402 104.444,365.811 104.722,365.912 104.621 C 366.128 104.405,364.988 103.200,364.567 103.200 C 364.407 103.200,364.603 103.561,365.002 104.002 M263.400 116.705 C 262.069 117.059,270.827 118.429,273.000 118.207 C 274.507 118.053,274.803 118.102,274.200 118.406 C 273.585 118.717,273.852 118.772,275.354 118.648 C 276.429 118.559,277.105 118.612,276.857 118.765 C 276.254 119.138,280.230 120.551,281.024 120.246 C 281.410 120.098,281.540 120.173,281.371 120.447 C 281.188 120.744,281.392 120.793,282.000 120.600 C 282.565 120.421,282.808 120.464,282.652 120.715 C 282.350 121.205,283.507 121.705,284.098 121.339 C 284.368 121.172,284.404 121.270,284.196 121.606 C 283.951 122.003,284.058 122.064,284.622 121.847 C 285.037 121.688,285.250 121.683,285.097 121.836 C 284.945 121.989,286.196 122.898,287.879 123.857 C 289.561 124.816,291.236 125.871,291.600 126.200 C 292.405 126.929,292.954 126.986,292.559 126.300 C 292.392 126.010,292.424 125.940,292.636 126.133 C 292.836 126.317,292.970 126.587,292.934 126.733 C 292.839 127.118,293.632 128.000,294.073 128.000 C 294.279 128.000,294.316 127.775,294.155 127.500 C 293.994 127.225,294.255 127.344,294.734 127.764 C 295.213 128.185,295.512 128.621,295.399 128.735 C 295.136 128.997,296.813 130.800,297.319 130.800 C 297.527 130.800,297.460 130.485,297.169 130.100 C 296.878 129.715,297.486 130.202,298.520 131.183 C 299.554 132.164,300.400 133.115,300.400 133.297 C 300.400 133.479,299.836 132.986,299.147 132.200 C 298.457 131.415,297.794 130.872,297.673 130.994 C 297.346 131.320,300.471 134.403,300.875 134.154 C 301.065 134.036,301.173 134.089,301.115 134.270 C 300.941 134.819,303.622 138.434,304.020 138.187 C 304.224 138.062,304.291 138.220,304.168 138.539 C 304.046 138.858,304.166 139.255,304.435 139.421 C 304.768 139.627,304.821 139.557,304.600 139.200 C 304.384 138.851,304.433 138.773,304.745 138.966 C 305.002 139.125,305.112 139.419,304.988 139.619 C 304.643 140.177,305.581 141.659,306.082 141.349 C 306.339 141.191,306.411 141.259,306.254 141.512 C 305.923 142.048,307.613 145.639,308.066 145.359 C 308.244 145.249,308.283 145.439,308.151 145.782 C 308.020 146.125,308.202 146.848,308.556 147.389 C 308.910 147.930,309.203 148.693,309.206 149.086 C 309.211 149.699,309.272 149.715,309.632 149.200 C 309.961 148.731,309.997 148.798,309.797 149.506 C 309.508 150.533,310.294 153.313,310.787 153.008 C 310.965 152.898,311.102 153.032,311.092 153.304 C 311.016 155.414,311.316 158.072,311.540 157.276 C 311.683 156.768,311.800 184.094,311.800 218.000 C 311.800 251.906,311.683 279.232,311.540 278.724 C 311.288 277.830,310.983 281.078,311.138 283.000 C 311.186 283.601,311.114 283.664,310.848 283.252 C 310.357 282.493,309.449 285.294,309.814 286.444 C 310.014 287.076,309.953 287.218,309.580 286.988 C 309.211 286.760,309.135 286.909,309.300 287.538 C 309.446 288.097,309.373 288.307,309.095 288.135 C 308.820 287.965,308.759 288.117,308.927 288.555 C 309.105 289.018,309.040 289.148,308.727 288.955 C 308.415 288.762,308.350 288.893,308.527 289.355 C 308.705 289.818,308.640 289.948,308.327 289.755 C 308.015 289.562,307.950 289.693,308.127 290.155 C 308.272 290.533,308.246 290.752,308.068 290.642 C 307.644 290.380,305.513 294.736,305.822 295.235 C 305.952 295.447,305.844 295.570,305.580 295.510 C 305.316 295.449,305.009 295.650,304.898 295.956 C 304.763 296.328,304.865 296.407,305.210 296.194 C 305.549 295.984,305.625 296.035,305.434 296.345 C 305.275 296.602,304.986 296.715,304.792 296.595 C 304.355 296.325,303.480 297.881,303.788 298.381 C 303.912 298.581,303.802 298.875,303.545 299.034 C 303.226 299.231,303.182 299.144,303.407 298.762 C 303.589 298.453,303.347 298.543,302.869 298.962 C 301.837 299.867,301.689 300.739,302.700 299.956 C 303.291 299.498,303.284 299.550,302.652 300.291 C 302.241 300.773,301.771 301.130,301.608 301.084 C 301.445 301.038,300.091 302.350,298.599 304.000 L 295.887 307.000 298.544 304.344 C 300.005 302.883,301.200 301.808,301.200 301.955 C 301.200 302.101,299.915 303.477,298.345 305.011 C 296.775 306.545,295.615 307.575,295.769 307.300 C 296.273 306.394,295.358 306.779,294.370 307.888 C 293.836 308.486,293.715 308.734,294.100 308.439 C 295.096 307.675,294.968 308.128,293.931 309.038 C 293.453 309.457,293.208 309.552,293.387 309.248 C 293.610 308.869,293.537 308.754,293.156 308.881 C 292.850 308.983,292.600 309.262,292.600 309.500 C 292.600 309.738,292.436 310.083,292.236 310.267 C 292.024 310.460,291.992 310.390,292.159 310.100 C 292.318 309.825,292.279 309.600,292.073 309.600 C 291.489 309.600,290.773 310.636,291.103 311.001 C 291.267 311.181,291.179 311.201,290.908 311.046 C 290.308 310.701,288.692 311.501,288.995 311.992 C 289.115 312.186,289.002 312.475,288.745 312.634 C 288.435 312.825,288.384 312.749,288.594 312.410 C 288.807 312.065,288.728 311.963,288.356 312.098 C 288.050 312.209,287.843 312.496,287.895 312.736 C 287.950 312.987,287.711 313.064,287.330 312.918 C 286.889 312.749,286.764 312.819,286.955 313.127 C 287.148 313.440,287.018 313.505,286.555 313.327 C 286.093 313.150,285.962 313.215,286.155 313.527 C 286.348 313.840,286.218 313.905,285.755 313.727 C 285.253 313.535,285.156 313.606,285.396 313.994 C 285.613 314.344,285.569 314.428,285.266 314.241 C 284.652 313.861,279.171 316.029,279.480 316.529 C 279.614 316.746,279.524 316.800,279.280 316.650 C 279.036 316.499,278.361 316.495,277.780 316.641 C 277.006 316.835,276.868 316.995,277.262 317.242 C 277.580 317.440,277.146 317.497,276.200 317.381 C 274.926 317.225,274.763 317.270,275.400 317.599 C 276.019 317.920,275.799 317.963,274.424 317.790 C 272.186 317.508,266.289 318.394,267.422 318.842 C 267.868 319.019,267.348 319.072,266.200 318.967 C 265.100 318.867,264.508 318.924,264.885 319.093 C 265.262 319.262,228.334 319.400,182.823 319.400 C 137.312 319.400,100.284 319.250,100.538 319.067 C 100.795 318.882,100.110 318.826,99.000 318.942 C 97.833 319.063,97.333 319.018,97.800 318.834 C 98.981 318.368,93.605 317.505,91.261 317.785 C 89.837 317.954,89.588 317.910,90.200 317.596 C 90.834 317.271,90.668 317.226,89.400 317.381 C 88.454 317.497,88.020 317.440,88.338 317.242 C 88.732 316.995,88.594 316.835,87.820 316.641 C 87.239 316.495,86.564 316.499,86.320 316.650 C 86.034 316.826,85.991 316.739,86.198 316.403 C 86.446 316.002,86.254 315.945,85.360 316.154 C 84.453 316.365,84.331 316.327,84.800 315.977 C 85.290 315.612,85.235 315.567,84.499 315.728 C 83.926 315.854,83.694 315.771,83.862 315.500 C 84.031 315.227,83.815 315.155,83.262 315.300 C 82.703 315.446,82.493 315.373,82.665 315.095 C 82.835 314.820,82.683 314.759,82.245 314.927 C 81.782 315.105,81.652 315.040,81.845 314.727 C 82.038 314.415,81.907 314.350,81.445 314.527 C 80.982 314.705,80.852 314.640,81.045 314.327 C 81.238 314.015,81.107 313.950,80.645 314.127 C 80.182 314.305,80.052 314.240,80.245 313.927 C 80.438 313.615,80.307 313.550,79.845 313.727 C 79.382 313.905,79.252 313.840,79.445 313.527 C 79.638 313.215,79.507 313.150,79.045 313.327 C 78.582 313.505,78.452 313.440,78.645 313.127 C 78.838 312.815,78.707 312.750,78.245 312.927 C 77.857 313.076,77.659 313.028,77.790 312.815 C 78.083 312.343,76.523 311.477,75.982 311.811 C 75.761 311.948,75.630 311.844,75.690 311.580 C 75.751 311.316,75.550 311.009,75.244 310.898 C 74.872 310.763,74.793 310.865,75.006 311.210 C 75.220 311.557,75.165 311.626,74.835 311.422 C 74.567 311.256,74.447 311.019,74.570 310.897 C 74.857 310.609,74.026 309.600,73.502 309.600 C 73.282 309.600,73.349 309.915,73.651 310.300 C 74.146 310.932,74.133 310.947,73.513 310.462 C 73.135 310.166,72.865 309.738,72.913 309.512 C 72.961 309.285,72.750 309.009,72.444 308.898 C 72.058 308.758,71.990 308.864,72.221 309.248 C 72.503 309.716,72.451 309.717,71.877 309.251 C 71.087 308.611,70.974 308.220,71.700 308.645 C 71.975 308.806,71.857 308.547,71.438 308.069 C 70.620 307.136,69.767 306.874,70.238 307.700 C 70.395 307.975,69.956 307.671,69.262 307.025 C 68.568 306.379,68.000 305.763,68.000 305.655 C 68.000 305.548,68.450 305.883,69.000 306.400 C 69.550 306.917,70.000 307.257,70.000 307.156 C 70.000 307.055,68.969 305.989,67.709 304.786 C 66.448 303.584,65.850 303.095,66.378 303.700 C 67.891 305.431,67.134 304.983,65.381 303.110 C 64.512 302.181,64.205 301.759,64.700 302.172 C 65.195 302.586,65.600 302.744,65.600 302.524 C 65.600 302.011,64.200 300.733,63.932 301.002 C 63.820 301.113,63.385 300.802,62.964 300.309 C 62.346 299.584,62.333 299.517,62.900 299.956 C 63.911 300.739,63.763 299.867,62.731 298.962 C 62.188 298.486,61.992 298.425,62.208 298.800 C 62.506 299.317,62.460 299.324,61.877 298.851 C 61.115 298.233,60.959 297.804,61.652 298.232 C 61.926 298.402,62.031 298.293,61.919 297.956 C 61.817 297.650,61.538 297.400,61.300 297.400 C 61.062 297.400,60.717 297.236,60.533 297.036 C 60.337 296.821,60.426 296.803,60.752 296.992 C 61.132 297.212,61.241 297.138,61.102 296.756 C 60.991 296.450,60.704 296.243,60.464 296.295 C 60.225 296.348,60.116 296.162,60.223 295.884 C 60.330 295.605,60.134 295.022,59.787 294.589 C 59.186 293.838,59.179 293.848,59.627 294.800 C 60.004 295.601,59.998 295.706,59.596 295.327 C 59.319 295.066,59.050 294.436,58.998 293.927 C 58.840 292.398,58.815 292.343,58.405 292.597 C 58.170 292.742,58.116 292.563,58.273 292.155 C 58.450 291.693,58.385 291.562,58.073 291.755 C 57.775 291.939,57.690 291.830,57.836 291.452 C 57.960 291.127,57.731 290.531,57.326 290.126 C 56.922 289.722,56.655 289.057,56.734 288.648 C 56.813 288.240,56.716 288.005,56.518 288.127 C 56.321 288.249,56.160 287.730,56.160 286.974 C 56.160 286.218,55.933 285.375,55.656 285.100 C 55.252 284.699,55.209 284.758,55.440 285.400 C 55.598 285.840,55.584 286.071,55.410 285.913 C 55.068 285.604,54.935 284.729,54.845 282.200 C 54.810 281.216,54.663 280.796,54.465 281.109 C 54.281 281.398,54.147 280.532,54.154 279.109 C 54.168 276.232,53.223 271.139,52.730 271.443 C 52.549 271.555,52.400 247.607,52.400 218.224 C 52.400 188.841,52.549 164.800,52.732 164.800 C 53.284 164.800,54.444 157.845,54.207 155.957 C 54.039 154.612,54.082 154.388,54.392 155.000 C 54.718 155.643,54.776 155.466,54.688 154.100 C 54.628 153.165,54.704 152.400,54.856 152.400 C 55.342 152.400,56.498 148.882,56.181 148.369 C 55.972 148.032,56.042 147.979,56.401 148.201 C 56.792 148.442,56.868 148.305,56.700 147.663 C 56.576 147.188,56.633 146.800,56.827 146.800 C 57.377 146.800,58.484 144.395,58.234 143.743 C 58.090 143.369,58.176 143.262,58.473 143.445 C 58.785 143.638,58.850 143.507,58.673 143.045 C 58.523 142.655,58.572 142.459,58.787 142.592 C 59.254 142.881,60.422 141.162,60.505 140.064 C 60.539 139.619,60.689 139.331,60.839 139.424 C 60.990 139.517,61.402 139.151,61.756 138.611 C 62.658 137.235,62.559 136.930,61.576 138.056 L 60.753 139.000 61.420 137.903 C 61.787 137.300,62.231 136.895,62.406 137.004 C 62.581 137.112,63.462 136.321,64.362 135.245 C 66.093 133.178,66.544 132.183,65.200 133.400 C 63.366 135.060,64.588 133.593,66.878 131.387 C 68.240 130.074,69.118 129.315,68.829 129.700 C 68.539 130.085,68.473 130.400,68.681 130.400 C 69.196 130.400,70.861 128.595,70.594 128.327 C 70.477 128.210,70.690 127.863,71.067 127.557 C 71.521 127.188,71.652 127.169,71.453 127.500 C 71.288 127.775,71.333 128.000,71.553 128.000 C 71.953 128.000,72.582 127.235,72.594 126.733 C 72.597 126.587,72.764 126.317,72.964 126.133 C 73.176 125.940,73.208 126.010,73.041 126.300 C 72.612 127.045,73.417 126.904,74.051 126.123 C 74.424 125.663,74.440 125.543,74.100 125.747 C 73.371 126.185,73.488 125.788,74.277 125.149 C 74.851 124.683,74.903 124.684,74.621 125.152 C 74.390 125.536,74.458 125.642,74.844 125.502 C 75.150 125.391,75.351 125.084,75.290 124.820 C 75.230 124.556,75.350 124.446,75.558 124.574 C 76.055 124.881,81.687 121.820,81.313 121.446 C 81.154 121.287,81.363 121.288,81.778 121.447 C 82.299 121.647,82.443 121.593,82.245 121.273 C 82.052 120.960,82.182 120.895,82.645 121.073 C 83.083 121.241,83.235 121.180,83.065 120.905 C 82.893 120.627,83.103 120.554,83.662 120.700 C 84.305 120.868,84.442 120.792,84.201 120.401 C 83.976 120.038,84.031 119.972,84.381 120.188 C 84.659 120.360,85.854 120.172,87.036 119.770 C 88.219 119.368,88.985 118.915,88.739 118.763 C 88.493 118.610,89.171 118.553,90.246 118.635 C 91.817 118.755,92.004 118.709,91.200 118.402 C 90.426 118.106,90.632 118.068,92.115 118.236 C 94.591 118.517,100.666 117.586,99.200 117.150 C 98.634 116.982,99.155 116.942,100.400 117.058 C 102.018 117.208,102.441 117.150,102.000 116.837 C 101.576 116.537,125.241 116.424,182.800 116.453 C 227.570 116.475,263.840 116.588,263.400 116.705 M96.800 121.634 C 97.537 121.895,97.285 121.938,95.843 121.794 C 93.742 121.585,90.639 122.216,90.988 122.781 C 91.105 122.971,90.813 123.024,90.338 122.900 C 89.863 122.776,89.575 122.837,89.698 123.037 C 89.820 123.237,89.329 123.413,88.606 123.428 C 86.942 123.464,83.522 124.750,83.818 125.229 C 83.941 125.428,83.781 125.491,83.463 125.369 C 82.640 125.053,77.099 127.913,77.446 128.475 C 77.613 128.745,77.543 128.812,77.270 128.643 C 76.707 128.295,75.097 129.110,75.395 129.592 C 75.515 129.786,75.402 130.075,75.145 130.234 C 74.852 130.415,74.784 130.350,74.962 130.062 C 75.407 129.341,74.563 129.520,73.949 130.277 C 73.475 130.861,73.482 130.905,74.000 130.600 C 74.518 130.295,74.525 130.339,74.051 130.923 C 73.457 131.656,72.998 131.851,73.400 131.200 C 73.921 130.357,72.894 130.851,71.970 131.888 C 71.242 132.704,71.200 132.832,71.800 132.400 C 72.400 131.968,72.358 132.096,71.630 132.912 C 70.622 134.044,69.927 134.452,70.800 133.400 C 71.074 133.070,71.130 132.800,70.924 132.800 C 70.444 132.800,68.309 135.017,68.361 135.463 C 68.382 135.648,68.265 135.803,68.100 135.806 C 67.571 135.817,66.800 136.434,66.800 136.847 C 66.800 137.067,67.025 137.118,67.300 136.959 C 67.575 136.801,67.364 137.150,66.830 137.735 C 65.737 138.936,65.178 139.180,66.038 138.082 C 66.347 137.688,65.930 138.093,65.110 138.982 C 64.291 139.872,63.700 140.823,63.796 141.095 C 63.892 141.368,63.760 141.548,63.502 141.495 C 63.244 141.443,63.004 141.817,62.970 142.327 C 62.935 142.836,62.681 143.466,62.404 143.727 C 62.002 144.106,61.996 144.001,62.373 143.200 C 62.821 142.248,62.814 142.238,62.213 142.989 C 61.866 143.422,61.674 144.017,61.787 144.309 C 61.899 144.602,61.821 144.736,61.612 144.608 C 61.114 144.300,59.887 146.693,60.245 147.274 C 60.427 147.567,60.342 147.611,59.999 147.399 C 59.608 147.158,59.532 147.295,59.700 147.938 C 59.846 148.497,59.773 148.707,59.495 148.535 C 59.220 148.365,59.159 148.517,59.327 148.955 C 59.472 149.333,59.434 149.545,59.242 149.426 C 58.753 149.124,57.091 153.142,57.329 154.052 C 57.452 154.521,57.364 154.701,57.095 154.535 C 56.820 154.365,56.759 154.517,56.927 154.955 C 57.076 155.341,57.027 155.540,56.817 155.411 C 56.281 155.079,55.599 157.864,55.853 159.347 C 56.024 160.344,55.974 160.477,55.610 160.000 C 55.249 159.527,55.181 159.759,55.287 161.100 C 55.361 162.035,55.281 162.800,55.111 162.800 C 54.747 162.800,54.701 166.990,55.051 168.296 C 55.183 168.788,55.434 169.103,55.608 168.995 C 55.783 168.887,55.842 169.118,55.740 169.507 C 55.527 170.321,57.108 172.849,58.000 173.122 C 58.330 173.223,58.105 172.777,57.500 172.131 C 56.895 171.485,56.400 170.817,56.400 170.647 C 56.400 170.478,56.895 170.927,57.500 171.646 C 58.105 172.365,58.600 173.138,58.600 173.364 C 58.600 174.027,61.595 174.738,64.400 174.741 C 66.334 174.743,66.795 174.647,66.200 174.364 C 65.567 174.064,65.672 174.026,66.700 174.182 C 68.170 174.406,70.167 173.794,69.818 173.228 C 69.691 173.023,69.798 172.725,70.055 172.566 C 70.365 172.375,70.416 172.451,70.206 172.790 C 69.993 173.135,70.072 173.237,70.444 173.102 C 70.750 172.991,70.955 172.698,70.900 172.450 C 70.845 172.203,71.025 172.045,71.300 172.100 C 71.575 172.155,71.740 171.930,71.667 171.600 C 71.593 171.270,71.669 171.135,71.834 171.301 C 72.170 171.637,73.600 170.494,73.600 169.889 C 73.600 169.676,73.285 169.746,72.900 170.044 C 72.330 170.485,72.342 170.420,72.962 169.693 C 73.772 168.743,74.237 168.493,73.762 169.262 C 73.579 169.557,73.653 169.615,73.965 169.421 C 74.234 169.255,74.364 168.884,74.254 168.597 C 74.144 168.310,74.447 167.743,74.927 167.338 L 75.800 166.600 75.038 167.500 C 74.619 167.995,74.441 168.400,74.642 168.400 C 75.147 168.400,76.075 166.845,75.818 166.429 C 75.703 166.243,75.877 165.868,76.204 165.596 C 76.532 165.324,76.800 165.242,76.800 165.413 C 76.800 165.584,77.160 165.398,77.600 165.000 C 78.481 164.202,78.691 163.387,77.900 163.836 C 77.625 163.992,78.020 163.463,78.778 162.660 C 80.486 160.851,80.983 160.719,79.379 162.500 C 78.735 163.215,79.061 162.998,80.104 162.017 C 81.995 160.238,82.628 159.410,81.300 160.451 C 80.667 160.948,80.652 160.934,81.145 160.304 C 81.445 159.922,81.820 159.689,81.979 159.787 C 82.285 159.976,85.645 156.722,85.742 156.142 C 85.774 155.954,85.908 155.836,86.041 155.880 C 86.173 155.924,86.893 155.296,87.641 154.484 C 88.901 153.115,88.913 153.080,87.800 154.000 C 86.711 154.901,86.727 154.854,87.978 153.496 C 89.319 152.042,90.200 151.395,89.200 152.600 C 88.926 152.930,88.873 153.200,89.081 153.200 C 89.596 153.200,91.261 151.395,90.994 151.127 C 90.877 151.010,91.090 150.663,91.467 150.357 C 91.921 149.988,92.052 149.969,91.853 150.300 C 91.344 151.147,92.231 150.853,93.038 149.907 C 93.792 149.023,93.792 149.020,93.000 149.600 C 92.208 150.180,92.208 150.177,92.962 149.293 C 93.743 148.378,94.243 148.084,93.800 148.800 C 93.382 149.476,94.268 149.243,94.851 148.523 C 95.325 147.939,95.318 147.895,94.800 148.200 C 94.282 148.505,94.275 148.461,94.749 147.877 C 95.343 147.144,95.802 146.949,95.400 147.600 C 95.264 147.820,95.333 148.000,95.553 148.000 C 95.953 148.000,96.582 147.235,96.594 146.733 C 96.597 146.587,96.764 146.317,96.964 146.133 C 97.176 145.940,97.208 146.010,97.041 146.300 C 96.612 147.045,97.417 146.904,98.051 146.123 C 98.424 145.663,98.440 145.543,98.100 145.747 C 97.371 146.185,97.488 145.788,98.277 145.149 C 98.851 144.683,98.903 144.684,98.621 145.152 C 98.391 145.534,98.460 145.647,98.844 145.519 C 99.150 145.417,99.400 145.138,99.400 144.900 C 99.400 144.662,99.564 144.317,99.764 144.133 C 99.979 143.937,99.997 144.026,99.808 144.352 C 99.590 144.729,99.664 144.845,100.044 144.719 C 100.350 144.617,100.600 144.338,100.600 144.100 C 100.600 143.862,100.764 143.517,100.964 143.333 C 101.176 143.140,101.208 143.210,101.041 143.500 C 100.641 144.195,100.934 144.130,102.577 143.161 C 103.359 142.699,103.906 142.172,103.793 141.988 C 103.680 141.805,103.798 141.525,104.055 141.366 C 104.365 141.175,104.416 141.251,104.206 141.590 C 103.993 141.935,104.072 142.037,104.444 141.902 C 104.750 141.791,104.951 141.484,104.890 141.220 C 104.830 140.956,104.961 140.852,105.182 140.989 C 105.708 141.314,107.287 140.464,107.005 140.008 C 106.885 139.814,106.998 139.525,107.255 139.366 C 107.548 139.185,107.616 139.250,107.438 139.538 C 106.993 140.259,107.837 140.080,108.451 139.323 C 108.924 138.740,108.917 138.693,108.400 138.985 C 108.070 139.171,108.321 138.764,108.957 138.081 C 109.593 137.397,110.310 136.874,110.549 136.919 C 111.365 137.071,112.567 133.886,112.632 131.400 L 112.695 129.000 112.402 131.200 C 112.137 133.196,112.114 133.083,112.146 129.991 C 112.182 126.616,110.830 123.241,109.430 123.209 C 109.227 123.204,109.497 123.695,110.030 124.300 L 111.000 125.400 109.912 124.442 C 109.314 123.915,108.915 123.338,109.025 123.159 C 109.409 122.538,106.796 121.539,105.471 121.799 C 104.522 121.985,104.352 121.943,104.800 121.630 C 105.231 121.330,104.047 121.222,100.600 121.246 C 97.289 121.269,96.110 121.390,96.800 121.634 M79.967 122.149 C 79.558 122.515,77.200 123.600,77.200 123.423 C 77.200 123.174,79.274 122.038,79.767 122.016 C 79.968 122.007,80.058 122.067,79.967 122.149 M66.976 131.626 C 66.287 132.345,66.080 132.744,66.477 132.592 C 67.050 132.372,68.676 130.400,68.284 130.400 C 68.210 130.400,67.621 130.952,66.976 131.626 M109.402 137.998 C 109.003 138.439,108.862 138.800,109.089 138.800 C 109.592 138.800,110.590 137.657,110.321 137.388 C 110.215 137.282,109.802 137.556,109.402 137.998 M312.300 246.100 C 312.242 261.555,312.195 248.910,312.195 218.000 C 312.195 187.090,312.242 174.445,312.300 189.900 C 312.358 205.355,312.358 230.645,312.300 246.100 M350.610 182.400 C 350.548 182.510,351.150 183.010,351.948 183.511 L 353.400 184.421 352.278 183.411 C 351.660 182.855,351.289 182.400,351.452 182.400 C 352.144 182.400,353.527 184.125,353.303 184.708 C 353.155 185.094,353.228 185.230,353.495 185.065 C 353.773 184.893,353.846 185.103,353.700 185.662 C 353.576 186.137,353.637 186.424,353.837 186.301 C 354.037 186.177,354.200 186.672,354.200 187.400 C 354.200 188.128,354.065 188.640,353.900 188.538 C 353.735 188.436,353.600 188.696,353.600 189.114 C 353.600 189.533,353.244 190.198,352.809 190.591 C 352.375 190.985,352.108 191.450,352.216 191.626 C 352.324 191.801,352.202 192.075,351.945 192.234 C 351.635 192.425,351.584 192.349,351.794 192.010 C 352.007 191.665,351.928 191.563,351.556 191.698 C 351.250 191.809,351.043 192.096,351.095 192.336 C 351.150 192.587,350.911 192.664,350.530 192.518 C 350.166 192.378,349.971 192.430,350.096 192.632 C 350.221 192.834,349.638 193.000,348.800 193.000 C 347.962 193.000,347.379 192.834,347.504 192.632 C 347.629 192.430,347.434 192.378,347.070 192.518 C 346.689 192.664,346.450 192.587,346.505 192.336 C 346.557 192.096,346.350 191.809,346.044 191.698 C 345.672 191.563,345.593 191.665,345.806 192.010 C 346.016 192.349,345.965 192.425,345.655 192.234 C 345.398 192.075,345.283 191.790,345.400 191.600 C 345.603 191.272,344.902 190.619,344.333 190.606 C 344.187 190.603,343.917 190.436,343.733 190.236 C 343.540 190.024,343.610 189.992,343.900 190.159 C 344.563 190.541,344.531 190.213,343.757 188.716 C 343.165 187.571,343.165 187.362,343.763 186.108 C 344.121 185.359,344.292 184.550,344.145 184.311 C 343.997 184.072,344.060 183.990,344.285 184.129 C 344.509 184.268,345.032 183.983,345.447 183.497 C 346.191 182.625,346.190 182.621,345.400 183.207 C 344.657 183.758,344.639 183.750,345.156 183.091 C 345.517 182.632,345.993 182.471,346.507 182.634 C 346.943 182.772,347.205 182.731,347.088 182.543 C 346.972 182.354,347.742 182.200,348.800 182.200 C 349.858 182.200,350.673 182.290,350.610 182.400 M350.662 212.894 C 350.364 213.083,350.448 213.190,350.900 213.194 C 351.285 213.197,351.600 213.380,351.600 213.600 C 351.600 213.820,351.791 214.000,352.024 214.000 C 352.257 214.000,352.316 213.775,352.155 213.500 C 351.994 213.225,352.241 213.332,352.704 213.738 C 353.202 214.174,353.447 214.732,353.305 215.103 C 353.147 215.515,353.224 215.633,353.527 215.445 C 353.818 215.265,353.912 215.365,353.778 215.712 C 353.661 216.017,353.734 217.015,353.940 217.930 C 354.198 219.079,354.184 219.513,353.894 219.334 C 353.628 219.170,353.557 219.392,353.700 219.938 C 353.846 220.497,353.773 220.707,353.495 220.535 C 353.227 220.370,353.156 220.507,353.305 220.897 C 353.625 221.732,352.152 223.033,351.057 222.882 C 350.538 222.811,350.382 222.890,350.662 223.082 C 350.916 223.257,350.171 223.400,349.000 223.400 C 347.759 223.400,347.068 223.261,347.338 223.065 C 347.618 222.863,347.451 222.807,346.915 222.924 C 346.427 223.031,345.821 222.867,345.566 222.559 C 345.311 222.251,345.236 222.000,345.400 222.000 C 345.564 222.000,345.476 221.732,345.204 221.404 C 344.932 221.077,344.522 220.925,344.293 221.066 C 344.054 221.214,343.996 221.131,344.157 220.870 C 344.311 220.621,344.217 220.008,343.949 219.508 C 343.362 218.416,343.213 215.961,343.755 216.296 C 343.973 216.431,344.024 216.239,343.873 215.845 C 343.695 215.382,343.760 215.252,344.073 215.445 C 344.376 215.633,344.453 215.515,344.295 215.103 C 344.153 214.732,344.398 214.174,344.896 213.738 C 345.359 213.332,345.592 213.248,345.413 213.552 C 345.190 213.931,345.263 214.046,345.644 213.919 C 345.950 213.817,346.223 213.523,346.250 213.267 C 346.278 213.010,346.322 212.755,346.350 212.700 C 346.378 212.645,347.463 212.600,348.762 212.600 C 350.061 212.600,350.916 212.732,350.662 212.894 M349.688 242.669 C 349.388 242.790,349.795 243.189,350.673 243.637 C 352.439 244.538,352.538 244.555,352.155 243.900 C 351.994 243.625,352.249 243.739,352.722 244.153 C 353.194 244.568,353.504 245.032,353.409 245.186 C 353.314 245.339,353.496 246.440,353.814 247.632 C 354.502 250.220,354.514 250.378,353.963 249.600 C 353.630 249.130,353.575 249.236,353.711 250.088 C 353.819 250.766,353.730 251.080,353.474 250.922 C 353.230 250.771,353.162 250.923,353.305 251.297 C 353.447 251.668,353.202 252.226,352.704 252.662 C 352.241 253.068,352.008 253.152,352.187 252.848 C 352.411 252.467,352.339 252.359,351.956 252.498 C 351.650 252.609,351.436 252.876,351.480 253.091 C 351.524 253.306,351.074 253.404,350.480 253.309 C 349.633 253.175,349.530 253.229,350.000 253.563 C 350.460 253.889,350.181 253.988,348.800 253.988 C 347.492 253.988,347.164 253.882,347.600 253.600 C 347.944 253.378,348.001 253.210,347.733 253.206 C 347.476 253.203,346.936 253.093,346.533 252.962 C 345.910 252.760,345.890 252.795,346.400 253.193 C 346.933 253.609,346.933 253.643,346.400 253.497 C 346.070 253.407,345.798 253.168,345.794 252.967 C 345.786 252.428,343.913 250.007,343.636 250.178 C 343.506 250.258,343.400 249.458,343.400 248.400 C 343.400 247.331,343.563 246.577,343.768 246.704 C 343.970 246.829,344.022 246.634,343.882 246.270 C 343.736 245.889,343.813 245.650,344.064 245.705 C 344.304 245.757,344.591 245.550,344.702 245.244 C 344.826 244.904,344.729 244.797,344.452 244.968 C 343.707 245.429,343.941 244.976,344.869 244.162 C 345.347 243.743,345.606 243.625,345.445 243.900 C 345.284 244.175,345.321 244.400,345.527 244.400 C 346.020 244.400,346.853 243.386,346.583 243.116 C 346.467 243.000,346.874 242.986,347.486 243.084 C 348.355 243.223,348.468 243.169,348.000 242.837 C 347.531 242.505,347.706 242.418,348.800 242.438 C 349.570 242.452,349.970 242.556,349.688 242.669 M35.400 330.800 C 36.259 331.680,36.872 332.400,36.762 332.400 C 36.652 332.400,35.859 331.680,35.000 330.800 C 34.141 329.920,33.528 329.200,33.638 329.200 C 33.748 329.200,34.541 329.920,35.400 330.800 M359.970 336.240 C 359.436 336.812,358.100 338.008,357.000 338.898 C 355.630 340.006,355.882 339.684,357.800 337.876 C 360.684 335.158,361.676 334.409,359.970 336.240 M49.000 342.935 C 49.220 343.143,48.803 342.973,48.073 342.557 C 47.343 342.141,46.443 341.452,46.073 341.026 C 45.467 340.329,47.978 341.967,49.000 342.935 M60.230 349.503 C 60.049 349.684,56.800 348.068,56.800 347.797 C 56.800 347.694,57.606 348.002,58.591 348.481 C 59.576 348.959,60.314 349.419,60.230 349.503 M343.600 347.792 C 343.600 348.034,340.541 349.606,340.116 349.582 C 339.942 349.572,340.610 349.130,341.600 348.600 C 343.617 347.520,343.600 347.527,343.600 347.792 M91.832 375.501 C 91.649 375.684,89.200 374.470,89.200 374.196 C 89.200 374.095,89.828 374.312,90.595 374.678 C 91.362 375.044,91.919 375.414,91.832 375.501 " stroke="none" fill="#9c8484" fill-rule="evenodd"></path></g></svg>